<?xml version="1.0" encoding="iso-8859-1"?>
<!-- Generator: Adobe Illustrator 19.0.0, SVG Export Plug-In . SVG Version: 6.00 Build 0)  -->
<svg version="1.1" id="Capa_1" xmlns="http://www.w3.org/2000/svg" xmlns:xlink="http://www.w3.org/1999/xlink" x="0px" y="0px"
	 viewBox="0 0 56.48 56.48" style="enable-background:new 0 0 56.48 56.48;" xml:space="preserve">
<g>
	<g>
		<path d="M9.046,27.083c0,0.564,0.291,0.946,0.792,0.946c0.368,0,0.697-0.225,0.904-0.593c0.258-0.452,0.244-0.876,0.244-1.385
			v-0.283C10.043,25.768,9.046,25.971,9.046,27.083z"/>
	</g>
</g>
<g>
	<g>
		<path d="M40.879,23.963c-0.147-0.468-0.44-0.648-0.856-0.648c-0.961,0-1.023,1.312-1.023,2.129c0,0.818-0.012,2.568,1.012,2.568
			c1.013,0,1.062-1.411,1.062-2.271C41.074,25.174,41.051,24.499,40.879,23.963z"/>
	</g>
</g>
<g>
	<g>
		<path d="M26.167,27.083c0,0.564,0.294,0.946,0.797,0.946c0.364,0,0.695-0.225,0.901-0.593c0.259-0.452,0.245-0.876,0.245-1.385
			v-0.283C27.165,25.768,26.167,25.971,26.167,27.083z"/>
	</g>
</g>
<g>
	<g>
		<path d="M55.026,9.939H1.454C0.65,9.939,0,10.59,0,11.393v33.695c0,0.803,0.65,1.454,1.454,1.454h53.572
			c0.804,0,1.454-0.651,1.454-1.454V11.393C56.48,10.59,55.83,9.939,55.026,9.939z M27.95,23.607
			c-0.157-0.241-0.463-0.34-0.731-0.34c-0.498,0-0.942,0.255-1.05,0.784c-0.022,0.118-0.109,0.233-0.228,0.239l-1.266-0.136
			c-0.107-0.024-0.226-0.11-0.194-0.274c0.29-1.536,1.679-1.999,2.921-1.999c0.635,0,1.466,0.168,1.967,0.65
			c0.635,0.594,0.576,1.386,0.576,2.247v2.036c0,0.612,0.252,0.88,0.49,1.211c0.084,0.117,0.102,0.259-0.006,0.347
			c-0.265,0.222-0.739,0.636-1,0.867l-0.002-0.003c-0.086,0.077-0.211,0.083-0.31,0.031c-0.434-0.36-0.513-0.527-0.749-0.871
			c-0.716,0.73-1.227,0.949-2.154,0.949c-1.1,0-1.953-0.678-1.953-2.036c0-1.06,0.572-1.782,1.392-2.135
			c0.709-0.312,1.699-0.367,2.456-0.454v-0.168C28.11,24.242,28.135,23.875,27.95,23.607z M14.332,22.328
			c0-0.134,0.113-0.241,0.252-0.241h1.218c0.127,0.005,0.229,0.103,0.237,0.224v0.876h0.022c0.319-0.847,0.916-1.242,1.721-1.242
			c0.817,0,1.329,0.396,1.695,1.242c0.317-0.847,1.035-1.242,1.806-1.242c0.546,0,1.145,0.226,1.511,0.733
			c0.413,0.564,0.329,1.383,0.329,2.102l-0.002,4.229c0,0.135-0.112,0.244-0.251,0.244h-1.305c-0.13-0.01-0.235-0.115-0.235-0.244
			v-3.553c0-0.283,0.025-0.988-0.037-1.257c-0.097-0.45-0.389-0.577-0.768-0.577c-0.316,0-0.647,0.211-0.781,0.549
			c-0.133,0.338-0.121,0.904-0.121,1.285v3.553c0,0.135-0.111,0.244-0.252,0.244h-1.304c-0.132-0.01-0.236-0.115-0.236-0.244v-3.553
			c0-0.748,0.121-1.848-0.807-1.848c-0.938,0-0.9,1.073-0.9,1.848v3.553c0,0.135-0.112,0.244-0.251,0.244h-1.307
			c-0.125-0.01-0.226-0.104-0.234-0.223V22.328z M12.304,29.236c-0.087,0.077-0.211,0.083-0.309,0.031
			c-0.434-0.36-0.512-0.527-0.749-0.871c-0.717,0.73-1.225,0.949-2.154,0.949c-1.099,0-1.955-0.678-1.955-2.036
			c0-1.06,0.576-1.782,1.393-2.135c0.71-0.312,1.7-0.367,2.456-0.454v-0.168c0-0.311,0.024-0.678-0.157-0.946
			c-0.16-0.241-0.465-0.34-0.732-0.34c-0.498,0-0.943,0.255-1.051,0.784c-0.022,0.118-0.109,0.233-0.226,0.239l-1.27-0.136
			c-0.104-0.024-0.225-0.11-0.194-0.274c0.293-1.536,1.679-1.999,2.921-1.999c0.637,0,1.467,0.168,1.969,0.65
			c0.635,0.594,0.574,1.386,0.574,2.247v2.036c0,0.612,0.253,0.88,0.492,1.211c0.085,0.117,0.103,0.259-0.003,0.347
			c-0.268,0.222-0.741,0.636-1.001,0.867L12.304,29.236z M33.32,31.828c-2.452,1.809-6.006,2.771-9.068,2.771
			c-4.291,0-8.153-1.586-11.076-4.227c-0.229-0.208-0.024-0.49,0.251-0.329c3.153,1.835,7.055,2.939,11.082,2.939
			c2.719,0,5.708-0.563,8.456-1.729C33.381,31.078,33.727,31.526,33.32,31.828z M34.002,33.601c-0.203,0.17-0.396,0.08-0.307-0.145
			c0.297-0.738,0.959-2.394,0.646-2.796c-0.313-0.399-2.074-0.188-2.863-0.096c-0.24,0.028-0.276-0.181-0.061-0.331
			c1.401-0.986,3.701-0.702,3.969-0.371C35.655,30.197,35.317,32.5,34.002,33.601z M36.129,29.052
			c-1.32-0.692-3.072-0.768-4.533,0.008c-0.149,0.08-0.307-0.082-0.307-0.221v-0.972c0-0.156,0.002-0.422,0.158-0.659l2.578-3.696
			h-2.243c-0.14,0-0.248-0.098-0.248-0.241v-0.959c0-0.146,0.108-0.243,0.241-0.243h4.293c0.139,0,0.248,0.099,0.248,0.243v0.821
			c0,0.138-0.116,0.317-0.322,0.603l-2.227,3.176c0.828-0.021,1.699,0.103,2.449,0.525c0.17,0.096,0.215,0.235,0.229,0.373v1.023
			h0.001C36.446,28.974,36.292,29.135,36.129,29.052z M40.012,29.393c-1.902,0-2.938-1.666-2.938-3.739
			c0-2.086,1.05-3.709,2.938-3.709c1.939,0,2.988,1.665,2.988,3.781C43.002,27.771,41.842,29.393,40.012,29.393z M49.09,29.252
			h-1.31c-0.118-0.009-0.22-0.097-0.231-0.211V25.4c0-0.733,0.086-1.806-0.815-1.806c-0.319,0-0.61,0.213-0.755,0.536
			c-0.187,0.41-0.209,0.817-0.209,1.27v3.609c-0.002,0.133-0.115,0.242-0.256,0.242h-1.299c-0.133-0.009-0.236-0.113-0.236-0.242
			l-0.002-6.706c0.011-0.123,0.119-0.219,0.252-0.219h1.211c0.113,0.005,0.208,0.083,0.234,0.188v1.027h0.021
			c0.365-0.917,0.879-1.354,1.781-1.354c0.584,0,1.156,0.211,1.523,0.79c0.342,0.537,0.342,1.438,0.342,2.087v4.22h0.002
			C49.326,29.159,49.221,29.252,49.09,29.252z"/>
	</g>
</g>
<g>
</g>
<g>
</g>
<g>
</g>
<g>
</g>
<g>
</g>
<g>
</g>
<g>
</g>
<g>
</g>
<g>
</g>
<g>
</g>
<g>
</g>
<g>
</g>
<g>
</g>
<g>
</g>
<g>
</g>
</svg>
