<?xml version="1.0" encoding="iso-8859-1"?>
<!-- Generator: Adobe Illustrator 19.0.0, SVG Export Plug-In . SVG Version: 6.00 Build 0)  -->
<svg version="1.1" id="Capa_1" xmlns="http://www.w3.org/2000/svg" xmlns:xlink="http://www.w3.org/1999/xlink" x="0px" y="0px"
	 viewBox="0 0 520 520" style="enable-background:new 0 0 520 520;" xml:space="preserve">
<path d="M18.784,250.584c0-6.672,0.4-12.832,1.184-18.48c0.792-5.64,1.976-11.736,3.552-18.28h36.576v15.096
	c0,8.368,0.52,15.768,1.552,22.208c1.024,6.432,2.728,11.856,5.088,16.296c2.368,4.424,5.52,7.76,9.464,10
	c3.944,2.248,8.76,3.368,14.464,3.368c8.976,0,15.832-2.456,20.56-7.368c4.736-4.912,7.096-12.096,7.096-21.56
	c0-4.848-0.336-9.312-1-13.376c-0.664-4.064-1.816-8.096-3.456-12.096c-1.64-4.008-3.848-8.216-6.64-12.648
	c-2.792-4.424-6.368-9.368-10.736-14.824L47.36,140.488c-8.728-11.16-15.464-22.408-20.192-33.76
	c-4.736-11.344-7.096-23.44-7.096-36.304c0-10.312,1.608-19.784,4.816-28.392C28.096,33.424,32.736,26,38.8,19.752
	c6.064-6.248,13.56-11.104,22.48-14.56C70.2,1.728,80.296,0,91.584,0c13.704,0,25.136,1.944,34.304,5.824s16.464,8.976,21.936,15.28
	c5.456,6.312,9.304,13.376,11.552,21.208c2.24,7.824,3.368,15.68,3.368,23.56c0,6.672-0.52,12.824-1.552,18.464
	c-1.032,5.648-2.208,11.872-3.544,18.664h-36.4V88.248c0-16.488-2.368-29.136-7.096-37.944
	c-4.728-8.792-12.432-13.184-23.104-13.184c-8.856,0-15.48,2.456-19.832,7.368c-4.384,4.92-6.568,11.496-6.568,19.744
	c0,4.368,0.328,8.312,1,11.832c0.664,3.52,1.64,6.76,2.912,9.728c1.272,2.976,2.816,5.856,4.64,8.648
	c1.816,2.792,3.88,5.704,6.184,8.728l54.776,66.24c9.944,12.984,17.584,25.456,22.936,37.4c5.336,11.944,8,24.592,8,37.944
	c0,11.04-1.728,20.984-5.184,29.848s-8.4,16.376-14.824,22.56c-6.432,6.184-14.192,10.952-23.304,14.28
	c-9.096,3.336-19.344,5.008-30.744,5.008c-14.072,0-25.76-1.88-35.032-5.64c-9.28-3.76-16.68-8.736-22.208-14.92
	c-5.52-6.184-9.4-13.224-11.648-21.104C19.912,266.896,18.784,258.832,18.784,250.584z"/>
<path d="M204.776,2.728H319.96v37.128h-68.056v92.992h52.592v37.12h-52.592v106.456h69.888v37.128H204.776V2.728z"/>
<path d="M424.608,316.272c-4.976,0-10.376-0.392-16.208-1.184c-5.816-0.784-11.584-2.456-17.28-5
	c-5.704-2.552-11.192-6.16-16.464-10.824c-5.28-4.672-9.952-10.832-14.024-18.48c-4.064-7.64-7.304-17.072-9.736-28.288
	c-2.424-11.224-3.632-24.592-3.632-40.128V102.272c0-15.648,1.24-29.032,3.728-40.128c2.488-11.104,5.792-20.44,9.912-28.032
	c4.128-7.576,8.824-13.616,14.104-18.104s10.792-7.912,16.56-10.28c5.76-2.36,11.488-3.912,17.192-4.64
	C414.464,0.36,419.744,0,424.608,0c4.608,0,9.728,0.336,15.368,1c5.648,0.664,11.296,2.12,16.936,4.368
	c5.64,2.24,11.128,5.576,16.464,10.008c5.336,4.424,10.064,10.432,14.192,18.008c4.12,7.584,7.432,16.984,9.912,28.216
	c2.488,11.216,3.736,24.784,3.736,40.672v110.096c0,15.4-1.28,28.664-3.824,39.76s-5.888,20.512-10.008,28.2
	c-4.12,7.704-8.888,13.904-14.28,18.56c-5.4,4.672-10.92,8.312-16.56,10.92c-5.64,2.608-11.248,4.336-16.832,5.184
	C434.128,315.848,429.08,316.272,424.608,316.272z M424.608,280.792c4.608,0,8.64-0.784,12.096-2.368
	c3.456-1.568,6.304-4.304,8.552-8.184c2.24-3.88,3.944-9.008,5.096-15.376s1.728-14.4,1.728-24.104V89.352
	c0-9.944-0.576-18.256-1.728-24.936c-1.152-6.672-2.856-12.04-5.096-16.104c-2.248-4.064-5.096-6.944-8.552-8.64
	s-7.488-2.544-12.096-2.544c-4.736,0-8.856,0.848-12.376,2.544s-6.432,4.576-8.736,8.64s-4.032,9.432-5.184,16.104
	c-1.152,6.672-1.728,14.984-1.728,24.936v141.4c0,9.704,0.576,17.736,1.728,24.104s2.88,11.496,5.184,15.376
	s5.216,6.616,8.736,8.184C415.744,280.008,419.864,280.792,424.608,280.792z"/>
<g>
	<rect x="183.784" y="416.56" style="fill:#F91E1E;" width="152.4" height="16"/>
	<rect x="28.288" y="504" style="fill:#F91E1E;" width="463.416" height="16"/>
</g>
<g>
</g>
<g>
</g>
<g>
</g>
<g>
</g>
<g>
</g>
<g>
</g>
<g>
</g>
<g>
</g>
<g>
</g>
<g>
</g>
<g>
</g>
<g>
</g>
<g>
</g>
<g>
</g>
<g>
</g>
</svg>
